<svg width="16" height="16" viewBox="0 0 16 16" fill="none" xmlns="http://www.w3.org/2000/svg">
<path d="M11 1.49993C9.5 0.499987 7.4858 0.347464 6 0.999932V1.5C8.76711 0.662287 10 3 8.73133 4.72249L10.2929 6.29286C10.4739 6.11191 10.7239 6 11 6C11.5523 6 12 6.44772 12 7C12 7.27612 11.8881 7.52611 11.7071 7.70707L13 8.99993L16 5.99993C16 5.99993 15.4494 5.44932 14.6914 4.72249C14.5118 4.89439 14.2682 5 14 5C13.4477 5 13 4.55228 13 4C13 3.75507 13.0881 3.5307 13.2342 3.35683C12.4016 2.59743 11.5609 1.87387 11 1.49993Z" fill="#CCCCCC"/>
<path d="M9 6.5L8.5 6L1.20331 13.2967C0.814881 13.6851 0.814881 14.3149 1.20331 14.7033C1.62634 15.1263 2.32442 15.0829 2.69172 14.6106L9 6.5Z" fill="#CCCCCC" stroke="#CCCCCC"/>
</svg>
