<svg width="16" height="16" viewBox="0 0 16 16" fill="none" xmlns="http://www.w3.org/2000/svg">
<path d="M13 5L13.5 4.5C14.0523 3.94772 14.0523 3.05228 13.5 2.5C12.9477 1.94772 12.0523 1.94772 11.5 2.5L11 3L13 5Z" fill="#CCCCCC"/>
<path d="M11.5 6.5L9.5 4.5L9.44264 4.55736L3.69586 10.3041C3.5677 10.4323 3.47678 10.5929 3.43282 10.7687L3 12.5L3.5 13L5.23129 12.5672C5.40712 12.5232 5.5677 12.4323 5.69586 12.3041L11.5 6.5Z" fill="#CCCCCC"/>
<path d="M9.5 4.5L11.5 6.5L5.69586 12.3041C5.5677 12.4323 5.40712 12.5232 5.23129 12.5672L3.5 13L3 12.5L3.43282 10.7687C3.47678 10.5929 3.5677 10.4323 3.69586 10.3041L9.5 4.5ZM9.5 4.5L9.44264 4.55736L9.20472 4.29048C8.82222 3.86143 8.15761 3.84239 7.75117 4.24883L5.5 6.5M13 5L13.5 4.5C14.0523 3.94772 14.0523 3.05228 13.5 2.5V2.5C12.9477 1.94772 12.0523 1.94772 11.5 2.5L11 3L13 5Z" stroke="#CCCCCC" stroke-linecap="round"/>
<path d="M1.14645 14.1464C0.951184 14.3417 0.951184 14.6583 1.14645 14.8536C1.34171 15.0488 1.65829 15.0488 1.85355 14.8536L1.14645 14.1464ZM2.14645 13.1464L1.14645 14.1464L1.85355 14.8536L2.85355 13.8536L2.14645 13.1464Z" fill="#CCCCCC"/>
</svg>
