<svg width="16" height="16" viewBox="0 0 16 16" fill="none" xmlns="http://www.w3.org/2000/svg">
<path d="M15 8C15 11.866 11.866 15 8 15C4.13401 15 1 11.866 1 8C1 4.13401 4.13401 1 8 1C11.866 1 15 4.13401 15 8ZM3.29524 8C3.29524 10.5984 5.40163 12.7048 8 12.7048C10.5984 12.7048 12.7048 10.5984 12.7048 8C12.7048 5.40163 10.5984 3.29524 8 3.29524C5.40163 3.29524 3.29524 5.40163 3.29524 8Z" fill="#E34E24"/>
<rect x="3.05017" y="11.5356" width="12" height="2" transform="rotate(-45 3.05017 11.5356)" fill="#E34E24"/>
</svg>
