<svg width="16" height="16" viewBox="0 0 16 16" fill="none" xmlns="http://www.w3.org/2000/svg">
<path fill-rule="evenodd" clip-rule="evenodd" d="M15 1H1V15H15V1ZM5.12 12C4.98 11.94 4.86333 11.86 4.77 11.76L4 12.79C4.10667 12.87 4.24667 12.95 4.42 13.03C4.58667 13.11 4.78 13.18 5 13.24C5.21333 13.3 5.43667 13.33 5.67 13.33C5.95667 13.33 6.22333 13.2967 6.47 13.23C6.72333 13.1633 6.94333 13.0567 7.13 12.91C7.32333 12.77 7.47 12.5867 7.57 12.36C7.67667 12.14 7.73 11.8733 7.73 11.56V4H6.23V11.26C6.23 11.5667 6.15667 11.7833 6.01 11.91C5.87 12.0367 5.72333 12.1 5.57 12.1C5.41 12.1 5.26 12.0667 5.12 12ZM9.71997 11.4699C9.54664 11.2765 9.38664 11.0499 9.23997 10.7899L8.21997 11.5099C8.3733 11.8365 8.58664 12.1399 8.85997 12.4199C9.1333 12.6999 9.4533 12.9232 9.81997 13.0899C10.1933 13.2499 10.5933 13.3299 11.02 13.3299C11.34 13.3299 11.6433 13.2799 11.93 13.1799C12.2233 13.0865 12.4866 12.9499 12.72 12.7699C12.9533 12.5832 13.1366 12.3565 13.27 12.0899C13.4033 11.8232 13.47 11.5199 13.47 11.1799C13.47 10.8799 13.42 10.6165 13.32 10.3899C13.2266 10.1565 13.0933 9.95653 12.92 9.78986C12.7533 9.61653 12.5633 9.46986 12.35 9.34986C12.1433 9.22986 11.9266 9.12986 11.7 9.04986C11.3466 8.92986 11.0533 8.8132 10.82 8.69986C10.5866 8.57986 10.4133 8.45653 10.3 8.32986C10.1866 8.19653 10.13 8.0432 10.13 7.86986C10.13 7.69653 10.2 7.54653 10.34 7.41986C10.48 7.28653 10.69 7.21986 10.97 7.21986C11.1833 7.21986 11.3733 7.2632 11.54 7.34986C11.7066 7.42986 11.8533 7.53986 11.98 7.67986C12.1133 7.8132 12.2266 7.9632 12.32 8.12986L13.44 7.50986C13.32 7.2632 13.15 7.02653 12.93 6.79986C12.7166 6.56653 12.4466 6.37653 12.12 6.22986C11.8 6.07653 11.4166 5.99986 10.97 5.99986C10.5366 5.99986 10.1433 6.07986 9.78997 6.23986C9.4433 6.3932 9.16664 6.61653 8.95997 6.90986C8.75997 7.19653 8.65997 7.53986 8.65997 7.93986C8.65997 8.2732 8.7233 8.55986 8.84997 8.79986C8.97664 9.0332 9.13664 9.2332 9.32997 9.39986C9.5233 9.55986 9.72664 9.6932 9.93997 9.79986C10.16 9.89986 10.3533 9.97986 10.52 10.0399C10.8333 10.1599 11.0966 10.2732 11.31 10.3799C11.53 10.4799 11.6933 10.5965 11.8 10.7299C11.9133 10.8632 11.97 11.0399 11.97 11.2599C11.97 11.5132 11.88 11.7132 11.7 11.8599C11.52 12.0065 11.2866 12.0799 11 12.0799C10.7533 12.0799 10.5233 12.0265 10.31 11.9199C10.0966 11.8132 9.89997 11.6632 9.71997 11.4699Z" fill="#F7DF1E"/>
</svg>
