<svg width="16" height="16" viewBox="0 0 16 16" fill="none" xmlns="http://www.w3.org/2000/svg">
<path d="M1 1.00024H15V15.0002H1V1.00024Z" fill="#F9DC47"/>
<path d="M9.77 11.4899C9.91667 11.7499 10.0767 11.9766 10.25 12.1699C10.43 12.3633 10.6267 12.5133 10.84 12.6199C11.0533 12.7266 11.2833 12.7799 11.53 12.7799C11.8167 12.7799 12.05 12.7066 12.23 12.5599C12.41 12.4133 12.5 12.2133 12.5 11.9599C12.5 11.7399 12.4433 11.5633 12.33 11.4299C12.2233 11.2966 12.06 11.1799 11.84 11.0799C11.6267 10.9733 11.3633 10.8599 11.05 10.7399C10.8833 10.6799 10.69 10.5999 10.47 10.4999C10.2567 10.3933 10.0533 10.2599 9.86 10.0999C9.66667 9.93328 9.50667 9.73328 9.38 9.49995C9.25333 9.25995 9.19 8.97329 9.19 8.63995C9.19 8.23995 9.29 7.89662 9.49 7.60995C9.69667 7.31662 9.97333 7.09328 10.32 6.93995C10.6733 6.77995 11.0667 6.69995 11.5 6.69995C11.9467 6.69995 12.33 6.77662 12.65 6.92995C12.9767 7.07662 13.2467 7.26662 13.46 7.49995C13.68 7.72662 13.85 7.96329 13.97 8.20995L12.85 8.82996C12.7567 8.66329 12.6433 8.51329 12.51 8.37995C12.3833 8.23995 12.2367 8.12995 12.07 8.04995C11.9033 7.96329 11.7133 7.91995 11.5 7.91995C11.22 7.91995 11.01 7.98662 10.87 8.11995C10.73 8.24662 10.66 8.39662 10.66 8.56995C10.66 8.74329 10.7167 8.89662 10.83 9.02995C10.9433 9.15662 11.1167 9.27995 11.35 9.39995C11.5833 9.51329 11.8767 9.62995 12.23 9.74995C12.4567 9.82995 12.6733 9.92995 12.88 10.0499C13.0933 10.1699 13.2833 10.3166 13.45 10.4899C13.6233 10.6566 13.7567 10.8566 13.85 11.0899C13.95 11.3166 14 11.5799 14 11.8799C14 12.2199 13.9333 12.5233 13.8 12.7899C13.6667 13.0566 13.4833 13.2833 13.25 13.4699C13.0167 13.6499 12.7533 13.7866 12.46 13.8799C12.1733 13.9799 11.87 14.0299 11.55 14.0299C11.1233 14.0299 10.7233 13.9499 10.35 13.7899C9.98333 13.6233 9.66333 13.3999 9.39 13.1199C9.11667 12.8399 8.90333 12.5366 8.75 12.2099L9.77 11.4899Z" fill="black"/>
<path d="M8.5 11.5V3.5H7V11.5C7 12.0523 6.55228 12.5 6 12.5C5.44772 12.5 5 12.0523 5 11.5V11H3.5V11.5C3.5 12.8807 4.61929 14 6 14C7.38071 14 8.5 12.8807 8.5 11.5Z" fill="black"/>
</svg>
