<svg width="16" height="16" viewBox="0 0 16 16" fill="none" xmlns="http://www.w3.org/2000/svg">
<path d="M1.5718 4.28867L8 0.57735L14.4282 4.28867V11.7113L8 15.4226L1.5718 11.7113V4.28867Z" fill="#578117" stroke="#578117"/>
<path d="M10.27 10.9899C10.4167 11.2499 10.5767 11.4766 10.75 11.6699C10.93 11.8633 11.1267 12.0133 11.34 12.1199C11.5533 12.2266 11.7833 12.2799 12.03 12.2799C12.3167 12.2799 12.55 12.2066 12.73 12.0599C12.91 11.9133 13 11.7133 13 11.4599C13 11.2399 12.9433 11.0633 12.83 10.9299C12.7233 10.7966 12.56 10.6799 12.34 10.5799C12.1267 10.4733 11.8633 10.3599 11.55 10.2399C11.3833 10.1799 11.19 10.0999 10.97 9.99995C10.7567 9.89328 10.5533 9.75995 10.36 9.59995C10.1667 9.43328 10.0067 9.23328 9.88 8.99995C9.75333 8.75995 9.69 8.47329 9.69 8.13995C9.69 7.73995 9.79 7.39662 9.99 7.10995C10.1967 6.81662 10.4733 6.59328 10.82 6.43995C11.1733 6.27995 11.5667 6.19995 12 6.19995C12.4467 6.19995 12.83 6.27662 13.15 6.42995C13.4767 6.57662 13.7467 6.76662 13.96 6.99995C14.18 7.22662 14.35 7.46329 14.47 7.70995L13.35 8.32996C13.2567 8.16329 13.1433 8.01329 13.01 7.87995C12.8833 7.73995 12.7367 7.62995 12.57 7.54995C12.4033 7.46329 12.2133 7.41995 12 7.41995C11.72 7.41995 11.51 7.48662 11.37 7.61995C11.23 7.74662 11.16 7.89662 11.16 8.06995C11.16 8.24329 11.2167 8.39662 11.33 8.52995C11.4433 8.65662 11.6167 8.77995 11.85 8.89995C12.0833 9.01329 12.3767 9.12995 12.73 9.24995C12.9567 9.32995 13.1733 9.42995 13.38 9.54995C13.5933 9.66995 13.7833 9.81662 13.95 9.98995C14.1233 10.1566 14.2567 10.3566 14.35 10.5899C14.45 10.8166 14.5 11.0799 14.5 11.3799C14.5 11.7199 14.4333 12.0233 14.3 12.2899C14.1667 12.5566 13.9833 12.7833 13.75 12.9699C13.5167 13.1499 13.2533 13.2866 12.96 13.3799C12.6733 13.4799 12.37 13.5299 12.05 13.5299C11.6233 13.5299 11.2233 13.4499 10.85 13.2899C10.4833 13.1233 10.1633 12.8999 9.89 12.6199C9.61667 12.3399 9.40333 12.0366 9.25 11.7099L10.27 10.9899Z" fill="white"/>
<path d="M9 11V3H7.5V11C7.5 11.5523 7.05228 12 6.5 12C5.94772 12 5.5 11.5523 5.5 11V10.5H4V11C4 12.3807 5.11929 13.5 6.5 13.5C7.88071 13.5 9 12.3807 9 11Z" fill="white"/>
</svg>
