<svg width="16" height="16" viewBox="0 0 16 16" fill="none" xmlns="http://www.w3.org/2000/svg">
<mask id="path-1-inside-1_1775_228" fill="white">
<path fill-rule="evenodd" clip-rule="evenodd" d="M7.99998 0L14.9282 4V12L14.2435 12.3953C14.2632 12.3609 14.2821 12.3258 14.3 12.2899C14.4333 12.0233 14.5 11.7199 14.5 11.3799C14.5 11.0799 14.45 10.8166 14.35 10.5899C14.2566 10.3566 14.1233 10.1566 13.95 9.98995C13.7833 9.81662 13.5933 9.66995 13.38 9.54995C13.1733 9.42995 12.9566 9.32995 12.73 9.24995C12.3766 9.12995 12.0833 9.01329 11.85 8.89995C11.6166 8.77995 11.4433 8.65662 11.33 8.52995C11.2166 8.39662 11.16 8.24329 11.16 8.06995C11.16 7.89662 11.23 7.74662 11.37 7.61995C11.51 7.48662 11.72 7.41995 12 7.41995C12.2133 7.41995 12.4033 7.46329 12.57 7.54995C12.7366 7.62995 12.8833 7.73995 13.01 7.87995C13.1433 8.01329 13.2566 8.16329 13.35 8.32996L14.47 7.70995C14.35 7.46329 14.18 7.22662 13.96 6.99995C13.7466 6.76662 13.4766 6.57662 13.15 6.42995C12.83 6.27662 12.4466 6.19995 12 6.19995C11.5666 6.19995 11.1733 6.27995 10.82 6.43995C10.4733 6.59328 10.1966 6.81662 9.98998 7.10995C9.78998 7.39662 9.68998 7.73995 9.68998 8.13995C9.68998 8.47329 9.75331 8.75995 9.87998 8.99995C10.0066 9.23328 10.1666 9.43328 10.36 9.59995C10.5533 9.75995 10.7566 9.89328 10.97 9.99995C11.19 10.0999 11.3833 10.1799 11.55 10.2399C11.8633 10.3599 12.1266 10.4733 12.34 10.5799C12.56 10.6799 12.7233 10.7966 12.83 10.9299C12.9433 11.0633 13 11.2399 13 11.4599C13 11.7133 12.91 11.9133 12.73 12.0599C12.55 12.2066 12.3166 12.2799 12.03 12.2799C11.7833 12.2799 11.5533 12.2266 11.34 12.1199C11.1266 12.0133 10.93 11.8633 10.75 11.6699C10.5766 11.4766 10.4166 11.2499 10.27 10.9899L9.24998 11.7099C9.40331 12.0366 9.61665 12.3399 9.88998 12.6199C10.1633 12.9 10.4833 13.1233 10.85 13.2899C11.2233 13.4499 11.6233 13.5299 12.05 13.5299C12.133 13.5299 12.2149 13.5266 12.2957 13.5198L7.99998 16L1.07178 12V4L7.99998 0ZM9 3V11C9 12.3807 7.88071 13.5 6.5 13.5C5.11929 13.5 4 12.3807 4 11V10.5H5.5V11C5.5 11.5523 5.94772 12 6.5 12C7.05228 12 7.5 11.5523 7.5 11V3H9Z"/>
</mask>
<path fill-rule="evenodd" clip-rule="evenodd" d="M7.99998 0L14.9282 4V12L14.2435 12.3953C14.2632 12.3609 14.2821 12.3258 14.3 12.2899C14.4333 12.0233 14.5 11.7199 14.5 11.3799C14.5 11.0799 14.45 10.8166 14.35 10.5899C14.2566 10.3566 14.1233 10.1566 13.95 9.98995C13.7833 9.81662 13.5933 9.66995 13.38 9.54995C13.1733 9.42995 12.9566 9.32995 12.73 9.24995C12.3766 9.12995 12.0833 9.01329 11.85 8.89995C11.6166 8.77995 11.4433 8.65662 11.33 8.52995C11.2166 8.39662 11.16 8.24329 11.16 8.06995C11.16 7.89662 11.23 7.74662 11.37 7.61995C11.51 7.48662 11.72 7.41995 12 7.41995C12.2133 7.41995 12.4033 7.46329 12.57 7.54995C12.7366 7.62995 12.8833 7.73995 13.01 7.87995C13.1433 8.01329 13.2566 8.16329 13.35 8.32996L14.47 7.70995C14.35 7.46329 14.18 7.22662 13.96 6.99995C13.7466 6.76662 13.4766 6.57662 13.15 6.42995C12.83 6.27662 12.4466 6.19995 12 6.19995C11.5666 6.19995 11.1733 6.27995 10.82 6.43995C10.4733 6.59328 10.1966 6.81662 9.98998 7.10995C9.78998 7.39662 9.68998 7.73995 9.68998 8.13995C9.68998 8.47329 9.75331 8.75995 9.87998 8.99995C10.0066 9.23328 10.1666 9.43328 10.36 9.59995C10.5533 9.75995 10.7566 9.89328 10.97 9.99995C11.19 10.0999 11.3833 10.1799 11.55 10.2399C11.8633 10.3599 12.1266 10.4733 12.34 10.5799C12.56 10.6799 12.7233 10.7966 12.83 10.9299C12.9433 11.0633 13 11.2399 13 11.4599C13 11.7133 12.91 11.9133 12.73 12.0599C12.55 12.2066 12.3166 12.2799 12.03 12.2799C11.7833 12.2799 11.5533 12.2266 11.34 12.1199C11.1266 12.0133 10.93 11.8633 10.75 11.6699C10.5766 11.4766 10.4166 11.2499 10.27 10.9899L9.24998 11.7099C9.40331 12.0366 9.61665 12.3399 9.88998 12.6199C10.1633 12.9 10.4833 13.1233 10.85 13.2899C11.2233 13.4499 11.6233 13.5299 12.05 13.5299C12.133 13.5299 12.2149 13.5266 12.2957 13.5198L7.99998 16L1.07178 12V4L7.99998 0ZM9 3V11C9 12.3807 7.88071 13.5 6.5 13.5C5.11929 13.5 4 12.3807 4 11V10.5H5.5V11C5.5 11.5523 5.94772 12 6.5 12C7.05228 12 7.5 11.5523 7.5 11V3H9Z" fill="#578117"/>
<path d="M14.9282 4H15.9282V3.42265L15.4282 3.13397L14.9282 4ZM7.99998 0L8.49998 -0.866025L7.99998 -1.1547L7.49998 -0.866025L7.99998 0ZM14.9282 12L15.4282 12.866L15.9282 12.5773V12H14.9282ZM14.2435 12.3953L13.3761 11.8978L11.5299 15.1167L14.7435 13.2613L14.2435 12.3953ZM14.35 10.5899L13.4215 10.9613L13.428 10.9776L13.4351 10.9936L14.35 10.5899ZM13.95 9.98995L13.2291 10.6831L13.2427 10.6972L13.2569 10.7108L13.95 9.98995ZM13.38 9.54995L12.8778 10.4148L12.8897 10.4215L13.38 9.54995ZM12.73 9.24995L13.0628 8.3069L13.0516 8.30307L12.73 9.24995ZM11.85 8.89995L11.3926 9.78924L11.4028 9.79447L11.4131 9.79946L11.85 8.89995ZM11.33 8.52995L10.568 9.1776L10.5763 9.18728L10.5847 9.19675L11.33 8.52995ZM11.37 7.61995L12.0409 8.36149L12.0504 8.35291L12.0596 8.34409L11.37 7.61995ZM12.57 7.54995L12.1086 8.43717L12.1228 8.44455L12.1372 8.45148L12.57 7.54995ZM13.01 7.87995L12.2684 8.55087L12.2852 8.56939L12.3029 8.58706L13.01 7.87995ZM13.35 8.32996L12.4775 8.81856L12.9637 9.68679L13.8343 9.20485L13.35 8.32996ZM14.47 7.70995L14.9543 8.58485L15.7842 8.12545L15.3692 7.27249L14.47 7.70995ZM13.96 6.99995L13.222 7.67472L13.232 7.68573L13.2424 7.69643L13.96 6.99995ZM13.15 6.42995L12.7179 7.33177L12.7291 7.33713L12.7404 7.34222L13.15 6.42995ZM10.82 6.43995L11.2245 7.35452L11.2325 7.3509L10.82 6.43995ZM9.98998 7.10995L9.17249 6.53399L9.16985 6.53777L9.98998 7.10995ZM9.87998 8.99995L8.99553 9.46674L9.00113 9.47704L9.87998 8.99995ZM10.36 9.59995L9.70704 10.3574L9.71466 10.3639L9.72241 10.3703L10.36 9.59995ZM10.97 9.99995L10.5228 10.8944L10.5393 10.9027L10.5562 10.9103L10.97 9.99995ZM11.55 10.2399L11.9076 9.30609L11.8982 9.30248L11.8887 9.29906L11.55 10.2399ZM12.34 10.5799L11.8928 11.4744L11.9093 11.4827L11.9262 11.4903L12.34 10.5799ZM12.83 10.9299L12.0491 11.5546L12.0584 11.5663L12.068 11.5776L12.83 10.9299ZM10.75 11.6699L10.0054 12.3375L10.0117 12.3445L10.0181 12.3514L10.75 11.6699ZM10.27 10.9899L11.141 10.4986L10.5973 9.53486L9.6933 10.173L10.27 10.9899ZM9.24998 11.7099L8.6733 10.893L7.98866 11.3763L8.34474 12.1349L9.24998 11.7099ZM9.88998 12.6199L9.1744 13.3185L9.17441 13.3185L9.88998 12.6199ZM10.85 13.2899L10.4362 14.2003L10.4461 14.2048L10.4561 14.2091L10.85 13.2899ZM12.2957 13.5198L12.7957 14.3859L12.2127 12.5233L12.2957 13.5198ZM7.99998 16L7.49998 16.866L7.99998 17.1547L8.49998 16.866L7.99998 16ZM1.07178 12H0.0717773V12.5774L0.571777 12.866L1.07178 12ZM1.07178 4L0.571777 3.13397L0.0717773 3.42265V4H1.07178ZM9 3H10V2H9V3ZM4 10.5V9.5H3V10.5H4ZM5.5 10.5H6.5V9.5H5.5V10.5ZM7.5 3V2H6.5V3H7.5ZM15.4282 3.13397L8.49998 -0.866025L7.49998 0.866025L14.4282 4.86603L15.4282 3.13397ZM15.9282 12V4H13.9282V12H15.9282ZM14.7435 13.2613L15.4282 12.866L14.4282 11.134L13.7435 11.5293L14.7435 13.2613ZM13.4056 11.8427C13.396 11.8617 13.3862 11.8801 13.3761 11.8978L15.111 12.8928C15.1403 12.8417 15.1681 12.7898 15.1944 12.7372L13.4056 11.8427ZM13.5 11.3799C13.5 11.5866 13.4603 11.7333 13.4056 11.8427L15.1944 12.7372C15.4063 12.3133 15.5 11.8533 15.5 11.3799H13.5ZM13.4351 10.9936C13.4684 11.0692 13.5 11.1902 13.5 11.3799H15.5C15.5 10.9697 15.4315 10.564 15.2649 10.1863L13.4351 10.9936ZM13.2569 10.7108C13.3232 10.7746 13.3785 10.8538 13.4215 10.9613L15.2785 10.2186C15.1348 9.85943 14.9234 9.53867 14.6431 9.26912L13.2569 10.7108ZM12.8897 10.4215C13.0194 10.4945 13.1314 10.5814 13.2291 10.6831L14.6708 9.29684C14.4352 9.05181 14.1672 8.84541 13.8702 8.67837L12.8897 10.4215ZM12.3972 10.1929C12.5654 10.2523 12.7254 10.3262 12.8778 10.4147L13.8821 8.68516C13.6212 8.53369 13.3479 8.40757 13.0628 8.30696L12.3972 10.1929ZM11.4131 9.79946C11.6961 9.93694 12.0312 10.0687 12.4084 10.1968L13.0516 8.30307C12.7221 8.19119 12.4705 8.08964 12.2869 8.00045L11.4131 9.79946ZM10.5847 9.19675C10.8115 9.45023 11.1033 9.64043 11.3926 9.78924L12.3073 8.01066C12.2238 7.96771 12.1647 7.93109 12.1247 7.90266C12.0841 7.87378 12.0718 7.85939 12.0752 7.86316L10.5847 9.19675ZM10.16 8.06995C10.16 8.48306 10.3026 8.86536 10.568 9.1776L12.0919 7.88231C12.1057 7.89856 12.1254 7.92758 12.1405 7.96831C12.1556 8.00917 12.16 8.04552 12.16 8.06995H10.16ZM10.6991 6.87842C10.3705 7.17573 10.16 7.58701 10.16 8.06995H12.16C12.16 8.12235 12.1484 8.18667 12.1187 8.25034C12.0899 8.312 12.056 8.34786 12.0409 8.36149L10.6991 6.87842ZM12 6.41995C11.5777 6.41995 11.0753 6.51967 10.6803 6.89582L12.0596 8.34409C12.0337 8.36875 12.0076 8.38735 11.9842 8.4007C11.9613 8.41382 11.9437 8.42033 11.9351 8.42308C11.9199 8.4279 11.9362 8.41995 12 8.41995V6.41995ZM13.0313 6.66274C12.7039 6.49246 12.3519 6.41995 12 6.41995V8.41995C12.0747 8.41995 12.1028 8.43412 12.1086 8.43717L13.0313 6.66274ZM13.7515 7.20904C13.5397 6.97496 13.2888 6.78576 13.0027 6.64843L12.1372 8.45148C12.1845 8.47415 12.2269 8.50494 12.2684 8.55087L13.7515 7.20904ZM14.2225 7.84135C14.0849 7.59566 13.9162 7.37193 13.7171 7.17285L12.3029 8.58706C12.3705 8.65464 12.4284 8.73091 12.4775 8.81856L14.2225 7.84135ZM13.9857 6.83506L12.8657 7.45506L13.8343 9.20485L14.9543 8.58485L13.9857 6.83506ZM13.2424 7.69643C13.3995 7.85826 13.5036 8.00939 13.5707 8.14742L15.3692 7.27249C15.1964 6.91718 14.9605 6.59498 14.6776 6.30348L13.2424 7.69643ZM12.7404 7.34222C12.959 7.44037 13.1122 7.55467 13.222 7.67472L14.698 6.32518C14.3811 5.97857 13.9943 5.71287 13.5596 5.51768L12.7404 7.34222ZM12 7.19995C12.3347 7.19995 12.563 7.25756 12.7179 7.33177L13.5821 5.52813C13.097 5.29567 12.5586 5.19995 12 5.19995V7.19995ZM11.2325 7.3509C11.4418 7.25613 11.6922 7.19995 12 7.19995V5.19995C11.4411 5.19995 10.9048 5.30377 10.4075 5.529L11.2325 7.3509ZM10.8075 7.68591C10.9037 7.54926 11.0339 7.43879 11.2245 7.35449L10.4155 5.52542C9.91275 5.74778 9.48956 6.08398 9.1725 6.534L10.8075 7.68591ZM10.69 8.13995C10.69 7.91402 10.7436 7.77753 10.8101 7.68213L9.16985 6.53777C8.83641 7.01571 8.68998 7.56589 8.68998 8.13995H10.69ZM10.7644 8.53319C10.7291 8.4663 10.69 8.34725 10.69 8.13995H8.68998C8.68998 8.59933 8.77757 9.0536 8.99559 9.46671L10.7644 8.53319ZM11.0129 8.84254C10.9149 8.75802 10.8301 8.65418 10.7588 8.52286L9.00113 9.47704C9.18317 9.81239 9.41841 10.1085 9.70704 10.3574L11.0129 8.84254ZM11.4172 9.10552C11.2753 9.03456 11.1354 8.94363 10.9976 8.82956L9.72241 10.3703C9.97124 10.5763 10.238 10.752 10.5228 10.8944L11.4172 9.10552ZM11.8887 9.29906C11.7547 9.25082 11.5874 9.18211 11.3838 9.08958L10.5562 10.9103C10.7926 11.0178 11.0119 11.1091 11.2113 11.1808L11.8887 9.29906ZM12.7872 9.68552C12.5356 9.55973 12.2402 9.43348 11.9076 9.30609L11.1923 11.1738C11.4864 11.2864 11.7177 11.3868 11.8928 11.4744L12.7872 9.68552ZM13.6108 10.3053C13.3738 10.009 13.0612 9.80933 12.7538 9.66958L11.9262 11.4903C11.9888 11.5188 12.0265 11.5421 12.0462 11.5562C12.0657 11.5701 12.0623 11.5712 12.0491 11.5546L13.6108 10.3053ZM14 11.4599C14 11.0655 13.8952 10.6391 13.5919 10.2823L12.068 11.5776C12.0343 11.5379 12.0147 11.4974 12.0053 11.4679C11.9967 11.4411 12 11.4349 12 11.4599H14ZM13.3617 12.8352C13.7979 12.4797 14 11.9827 14 11.4599H12C12 11.467 11.9992 11.4371 12.0206 11.3896C12.0431 11.3395 12.0751 11.3037 12.0983 11.2847L13.3617 12.8352ZM12.03 13.2799C12.4912 13.2799 12.9644 13.1589 13.3617 12.8352L12.0983 11.2847C12.104 11.28 12.11 11.2762 12.1151 11.2735C12.1202 11.2708 12.1224 11.2703 12.1202 11.271C12.1155 11.2724 12.0887 11.2799 12.03 11.2799V13.2799ZM10.8928 13.0144C11.2498 13.1929 11.6335 13.2799 12.03 13.2799V11.2799C11.9331 11.2799 11.8569 11.2604 11.7872 11.2255L10.8928 13.0144ZM10.0181 12.3514C10.2708 12.6228 10.5617 12.8488 10.8928 13.0144L11.7872 11.2255C11.6916 11.1777 11.5892 11.1038 11.4819 10.9885L10.0181 12.3514ZM9.399 11.4813C9.57611 11.7952 9.77712 12.0829 10.0054 12.3375L11.4946 11.0024C11.3762 10.8704 11.2572 10.7047 11.141 10.4986L9.399 11.4813ZM9.82666 12.5269L10.8467 11.8069L9.6933 10.173L8.6733 10.893L9.82666 12.5269ZM10.6056 11.9214C10.4037 11.7146 10.2572 11.5023 10.1552 11.285L8.34474 12.1349C8.54941 12.5709 8.82959 12.9653 9.1744 13.3185L10.6056 11.9214ZM11.2638 12.3796C11.0066 12.2627 10.7897 12.1101 10.6056 11.9214L9.17441 13.3185C9.53688 13.6898 9.96003 13.9839 10.4362 14.2003L11.2638 12.3796ZM12.05 12.5299C11.7518 12.5299 11.4865 12.4748 11.2439 12.3708L10.4561 14.2091C10.9601 14.4251 11.4948 14.5299 12.05 14.5299V12.5299ZM12.2127 12.5233C12.1602 12.5277 12.106 12.5299 12.05 12.5299V14.5299C12.1601 14.5299 12.2697 14.5255 12.3788 14.5164L12.2127 12.5233ZM8.49998 16.866L12.7957 14.3859L11.7957 12.6538L7.49998 15.134L8.49998 16.866ZM0.571777 12.866L7.49998 16.866L8.49998 15.134L1.57178 11.134L0.571777 12.866ZM0.0717773 4V12H2.07178V4H0.0717773ZM7.49998 -0.866025L0.571777 3.13397L1.57178 4.86603L8.49998 0.866025L7.49998 -0.866025ZM10 11V3H8V11H10ZM6.5 14.5C8.433 14.5 10 12.933 10 11H8C8 11.8284 7.32843 12.5 6.5 12.5V14.5ZM3 11C3 12.933 4.567 14.5 6.5 14.5V12.5C5.67157 12.5 5 11.8284 5 11H3ZM3 10.5V11H5V10.5H3ZM5.5 9.5H4V11.5H5.5V9.5ZM6.5 11V10.5H4.5V11H6.5ZM6.5 11H4.5C4.5 12.1046 5.39543 13 6.5 13V11ZM6.5 11V13C7.60457 13 8.5 12.1046 8.5 11H6.5ZM6.5 3V11H8.5V3H6.5ZM9 2H7.5V4H9V2Z" fill="#578117" mask="url(#path-1-inside-1_1775_228)"/>
</svg>
