<svg width="16" height="16" viewBox="0 0 16 16" fill="none" xmlns="http://www.w3.org/2000/svg">
<path fill-rule="evenodd" clip-rule="evenodd" d="M14.9282 4L7.99998 0L1.07178 4V12L7.99998 16L14.9282 12V4ZM5.11998 11C4.97998 10.94 4.86331 10.86 4.76998 10.76L3.99998 11.79C4.10665 11.87 4.24665 11.95 4.41998 12.03C4.58665 12.11 4.77998 12.18 4.99998 12.24C5.21331 12.3 5.43665 12.33 5.66998 12.33C5.95665 12.33 6.22331 12.2967 6.46998 12.23C6.72331 12.1633 6.94331 12.0567 7.12998 11.91C7.32331 11.77 7.46998 11.5867 7.56998 11.36C7.67665 11.14 7.72998 10.8733 7.72998 10.56V3H6.22998V10.26C6.22998 10.5667 6.15665 10.7833 6.00998 10.91C5.86998 11.0367 5.72331 11.1 5.56998 11.1C5.40998 11.1 5.25998 11.0667 5.11998 11ZM9.71995 10.4699C9.54662 10.2765 9.38662 10.0499 9.23995 9.78986L8.21995 10.5099C8.37328 10.8365 8.58662 11.1399 8.85995 11.4199C9.13328 11.6999 9.45329 11.9232 9.81995 12.0899C10.1933 12.2499 10.5933 12.3299 11.02 12.3299C11.34 12.3299 11.6433 12.2799 11.93 12.1799C12.2233 12.0865 12.4866 11.9499 12.72 11.7699C12.9533 11.5832 13.1366 11.3565 13.27 11.0899C13.4033 10.8232 13.47 10.5199 13.47 10.1799C13.47 9.87986 13.42 9.61653 13.32 9.38986C13.2266 9.15653 13.0933 8.95653 12.92 8.78986C12.7533 8.61653 12.5633 8.46986 12.35 8.34986C12.1433 8.22986 11.9266 8.12986 11.7 8.04986C11.3466 7.92986 11.0533 7.8132 10.82 7.69986C10.5866 7.57986 10.4133 7.45653 10.3 7.32986C10.1866 7.19653 10.13 7.0432 10.13 6.86986C10.13 6.69653 10.2 6.54653 10.34 6.41986C10.48 6.28653 10.69 6.21986 10.97 6.21986C11.1833 6.21986 11.3733 6.2632 11.54 6.34986C11.7066 6.42986 11.8533 6.53986 11.98 6.67986C12.1133 6.8132 12.2266 6.9632 12.32 7.12986L13.44 6.50986C13.32 6.2632 13.15 6.02653 12.93 5.79986C12.7166 5.56653 12.4466 5.37653 12.12 5.22986C11.8 5.07653 11.4166 4.99986 10.97 4.99986C10.5366 4.99986 10.1433 5.07986 9.78995 5.23986C9.44328 5.3932 9.16662 5.61653 8.95995 5.90986C8.75995 6.19653 8.65995 6.53986 8.65995 6.93986C8.65995 7.2732 8.72328 7.55986 8.84995 7.79986C8.97662 8.0332 9.13662 8.2332 9.32995 8.39986C9.52328 8.55986 9.72662 8.6932 9.93995 8.79986C10.16 8.89986 10.3533 8.97986 10.52 9.03986C10.8333 9.15986 11.0966 9.2732 11.31 9.37986C11.53 9.47986 11.6933 9.59653 11.8 9.72986C11.9133 9.8632 11.97 10.0399 11.97 10.2599C11.97 10.5132 11.88 10.7132 11.7 10.8599C11.52 11.0065 11.2866 11.0799 11 11.0799C10.7533 11.0799 10.5233 11.0265 10.31 10.9199C10.0966 10.8132 9.89995 10.6632 9.71995 10.4699Z" fill="#27A51C"/>
</svg>
