<svg width="16" height="16" viewBox="0 0 16 16" fill="none" xmlns="http://www.w3.org/2000/svg">
<path fill-rule="evenodd" clip-rule="evenodd" d="M2 1V15H14V5L10 1H2ZM6.31967 6H5.25V14H7.0082V11.0971H8.02869C8.70902 11.0971 9.28689 10.9943 9.7623 10.7886C10.2459 10.5829 10.6148 10.2895 10.8689 9.90857C11.123 9.52 11.25 9.06667 11.25 8.54857C11.25 8.02286 11.123 7.56952 10.8689 7.18857C10.6148 6.80762 10.2459 6.51429 9.7623 6.30857C9.28689 6.10286 8.70902 6 8.02869 6H7.0082H6.31967ZM7.0082 7.38286V9.71429H8.02869C8.4959 9.71429 8.86475 9.61524 9.13525 9.41714C9.40574 9.21905 9.54098 8.92952 9.54098 8.54857C9.54098 8.16 9.40574 7.87048 9.13525 7.68C8.86475 7.4819 8.4959 7.38286 8.02869 7.38286H7.0082Z" fill="url(#paint0_linear_1776_75)"/>
<path d="M10 5V1L14 5H10Z" fill="white"/>
<defs>
<linearGradient id="paint0_linear_1776_75" x1="7.5" y1="7.5" x2="14" y2="1" gradientUnits="userSpaceOnUse">
<stop stop-color="#FF0000"/>
<stop offset="1" stop-color="#990000"/>
</linearGradient>
</defs>
</svg>
