<svg width="16" height="16" viewBox="0 0 16 16" fill="none" xmlns="http://www.w3.org/2000/svg">
<path d="M2 15V1H10L14 5V15H2Z" fill="#D35230"/>
<path d="M10 5V1L14 5H10Z" fill="white"/>
<path d="M6.09204 7.3999H7.44404V12.9999H6.09204V7.3999ZM6.94004 8.5119V7.3999H8.03604C8.51071 7.3999 8.90804 7.47457 9.22804 7.6239C9.55337 7.7679 9.79871 7.9759 9.96404 8.2479C10.1294 8.5199 10.212 8.8479 10.212 9.2319C10.212 9.60524 10.1294 9.93057 9.96404 10.2079C9.79871 10.4799 9.55337 10.6906 9.22804 10.8399C8.90804 10.9839 8.51071 11.0559 8.03604 11.0559H6.94004V9.9439H8.03604C8.30804 9.9439 8.52137 9.88257 8.67604 9.7599C8.83071 9.63724 8.90804 9.46124 8.90804 9.2319C8.90804 8.99724 8.83071 8.81857 8.67604 8.6959C8.52137 8.57324 8.30804 8.5119 8.03604 8.5119H6.94004Z" fill="white"/>
</svg>
